<svg width="414" height="71" viewBox="0 0 414 71" fill="none" xmlns="http://www.w3.org/2000/svg">
<path d="M0.986328 71V0.541016H47.666V12.6992H15.7324V29.5938H45.8594V41.1172H15.7324V58.8418H47.666V71H0.986328ZM65.5508 71L91.332 30.1309L87.9629 42.0938V35.3555L65.6973 0.541016H83.0312L98.0215 25.9316H104.809L95.2383 31.6445L113.451 0.541016H129.906L106.811 35.5996V42.3867L103.344 30.4238L129.613 71H112.816L97.3379 46.293H90.5508L100.316 40.7754L81.4688 71H65.5508ZM148.865 71V0.541016H195.545V12.6992H163.611V29.5938H193.738V41.1172H163.611V58.8418H195.545V71H148.865ZM234.035 71V12.6992H213.674V0.541016H269.191V12.6992H248.781V71H234.035ZM288.346 71V0.541016H335.025V12.6992H303.092V29.5938H333.219V41.1172H303.092V58.8418H335.025V71H288.346ZM356.67 71V0.541016H385.771C391.045 0.541016 395.553 1.4362 399.297 3.22656C403.073 5.01693 405.954 7.60482 407.939 10.9902C409.958 14.3431 410.967 18.3796 410.967 23.0996V23.1973C410.967 27.8197 409.811 31.9375 407.5 35.5508C405.221 39.1641 402.129 41.7357 398.223 43.2656L413.066 71H396.367L383.232 45.4629C383.135 45.4629 383.021 45.4629 382.891 45.4629C382.76 45.4629 382.63 45.4629 382.5 45.4629H371.416V71H356.67ZM371.416 34.2812H384.16C387.839 34.2812 390.703 33.3047 392.754 31.3516C394.837 29.3659 395.879 26.6478 395.879 23.1973V23.0996C395.879 19.7142 394.805 17.0286 392.656 15.043C390.508 13.0573 387.611 12.0645 383.965 12.0645H371.416V34.2812Z" fill="#DE1A1A"/>
</svg>
