<svg width="128" height="122" viewBox="0 0 128 122" fill="none" xmlns="http://www.w3.org/2000/svg">
    <path
        d="M24.044 35.7261C23.4281 25.9607 22.8219 16.3625 22.1994 6.50534C29.1585 13.258 35.9538 19.8518 42.8572 26.5505C46.5793 17.6796 50.262 8.9004 53.9971 0C55.768 2.67028 57.457 5.21279 59.1394 7.75857C63.1104 13.7659 67.0864 19.7716 71.0361 25.7936C71.3654 26.2966 71.7569 26.3539 72.273 26.3539C90.4555 26.3474 108.638 26.3474 126.819 26.3474C127.168 26.3474 127.515 26.3474 128.002 26.3474C127.299 28.0265 126.657 29.5812 126.001 31.1326C120.258 44.7199 114.444 58.2777 108.792 71.9044C105.561 79.6941 101.923 87.2872 98.2681 94.877C95.95 99.6917 93.6385 104.511 91.3221 109.328C91.2303 109.519 91.1222 109.703 90.9944 109.942C88.9516 109.257 86.9399 108.582 84.9281 107.906C81.465 106.741 78.0067 105.568 74.5386 104.418C74.2486 104.321 73.8964 104.315 73.5934 104.37C67.0225 105.579 60.4549 106.803 53.8857 108.024C50.8566 108.587 47.8079 109.066 44.8018 109.731C41.3173 110.502 37.8591 111.403 34.4057 112.309C23.1709 115.251 11.9426 118.223 0.712616 121.18C0.532413 121.228 0.345657 121.242 0.00163269 121.3C0.424291 120.169 0.805994 119.144 1.19261 118.118C3.72693 111.38 6.294 104.655 8.78572 97.9011C10.0029 94.6034 11.094 91.2582 12.2112 87.9244C12.321 87.5968 12.3161 87.161 12.1981 86.8367C9.28865 78.8422 6.35462 70.8559 3.42713 62.868C3.12898 62.0538 2.83738 61.2363 2.5081 60.3239C7.24744 59.5342 11.9163 58.7561 16.7032 57.9583C13.8642 47.9488 11.0432 38.0032 8.1632 27.8529C13.5398 30.5182 18.7231 33.0886 24.0457 35.7277L24.044 35.7261ZM31.6912 92.323C31.8386 92.0249 31.8911 91.902 31.9566 91.7857C38.0606 81.0751 44.1629 70.3645 50.2685 59.6538C54.6982 51.8822 59.1247 44.1088 63.5741 36.3486C63.8755 35.8211 63.8542 35.4591 63.52 34.9676C62.2143 33.0526 60.9529 31.1064 59.6718 29.1733C58.5628 27.5007 57.4504 25.8313 56.2513 24.0244C53.1075 31.5143 50.0228 38.8666 46.8971 46.3139C43.0686 42.6033 39.3236 38.973 35.5803 35.3428C35.5246 35.3739 35.4689 35.4034 35.4132 35.4345C35.8129 41.7891 36.2143 48.1438 36.6238 54.6655C33.0951 52.9159 29.6893 51.2269 26.1164 49.456C27.8054 55.4223 29.4468 61.2232 31.108 67.0962C26.6455 67.8383 22.3042 68.5591 17.9155 69.2881C17.9941 69.5257 18.0318 69.6535 18.0777 69.778C19.5996 73.9243 21.0248 78.1083 22.6778 82.2005C23.7999 84.9773 24.4044 87.6558 23.3281 90.5931C21.9864 94.2512 20.7873 97.9634 19.5209 101.649C19.1818 102.639 18.8198 103.622 18.4364 104.698C18.6789 104.659 18.7837 104.649 18.882 104.623C22.047 103.797 25.2121 102.968 28.3787 102.141C32.5726 101.045 36.7402 99.8277 40.9684 98.8923C45.3588 97.9208 49.8098 97.2311 54.233 96.4038C60.3435 95.262 66.4573 94.1447 72.5547 92.9357C74.2486 92.5999 75.7836 92.7146 77.3956 93.3469C79.7022 94.2528 82.0924 94.9425 84.4334 95.7616C85.0068 95.9615 85.2181 95.8042 85.4671 95.2751C87.0005 92.0183 88.583 88.7861 90.1426 85.5425C90.9764 83.8092 91.8004 82.0711 92.7015 80.1823C72.3123 84.2401 52.0836 88.2652 31.6896 92.323H31.6912ZM110.858 37.7067H109.849C98.8234 37.7067 87.7967 37.7133 76.7715 37.6903C76.0736 37.6903 75.7148 37.9213 75.3774 38.516C68.646 50.3717 61.8933 62.2144 55.1455 74.0619C54.7523 74.7516 54.3706 75.4495 53.9201 76.2587C54.3542 76.203 54.6261 76.1834 54.8899 76.131C60.5041 75.0121 66.1166 73.8866 71.7291 72.7661C80.3887 71.0361 89.0499 69.3127 97.7062 67.5598C98.0076 67.4992 98.3877 67.2125 98.5056 66.9357C102.138 58.4088 105.742 49.8704 109.347 41.3337C109.842 40.164 110.324 38.9878 110.856 37.7083L110.858 37.7067Z" />
    <style>
        path {
            fill: #000;
        }

        @media (prefers-color-scheme: dark) {
            path {
                fill: #FFF;
            }
        }
    </style>
</svg>