<?xml version="1.0" encoding="UTF-8"?>
<svg id="a" xmlns="http://www.w3.org/2000/svg" viewBox="0 0 512 244.96">
    <path
        d="M35.91,184.34c.7.37,1.41.71,2.09,1.11,14.38,8.26,29.48,14.77,45.55,18.96,11.56,3.02,23.3,4.73,35.25,5.41,10.9.62,21.75.13,32.55-1.08,8.3-.93,16.57-2.32,24.77-3.98,10.03-2.03,20.01-4.37,29.93-6.88,13.06-3.31,26.05-6.94,39.07-10.39,13.4-3.55,26.88-6.71,40.56-9.06,13.04-2.24,26.14-3.58,39.37-3.74,6.34-.07,12.69-.43,19.02-.2,21.76.79,43.03,4.24,63.3,12.6,8.18,3.38,15.92,7.58,23.06,12.84.59.43,1.14.92,1.55,1.76-.61-.13-1.23-.23-1.83-.38-12.65-3.16-25.39-5.94-38.31-7.69-8.14-1.11-16.34-1.78-24.54-2.39-5.49-.41-11.01-.55-16.52-.47-10.04.14-20.03,1.03-29.97,2.52-17.12,2.56-33.68,7.32-50.12,12.56-15.28,4.87-30.46,10.04-46.01,14.02-9.93,2.54-19.95,4.65-30.08,6.21-16.9,2.6-33.91,3.8-50.98,3.13-7.44-.29-14.89-1.21-22.26-2.3-11.95-1.76-23.62-4.73-34.99-8.87-14.79-5.38-28.54-12.6-40.45-23.02-3.23-2.83-6.15-6-9.2-9.04-.39-.39-.67-.9-1-1.36.07-.09.13-.18.2-.27Z"
        style="fill:#2796c6; stroke-width:0px;" />
    <path
        d="M79.67,198.66c-4.35-1.41-8.79-2.57-13.02-4.26-32.6-13.05-53.48-36.68-63.08-70.36C.29,112.54-.66,100.75.43,88.85,3.88,51.15,27.44,18.79,63.65,5.66c8.12-2.94,16.49-4.67,25.12-5.36,13.91-1.11,27.36.87,40.48,5.48.61.21,1.19.49,1.72.99-2.91-.33-5.82-.66-8.73-.98-7.55-.84-15.09-.53-22.57.59-12.98,1.94-25.12,6.31-36.25,13.28-20.18,12.64-33.76,30.47-41.02,53.09-3.84,11.97-5.21,24.25-4.45,36.83,2.19,36.52,24.74,71.41,59.88,87.49.68.31,1.34.66,2.01.99-.05.2-.1.4-.16.6Z"
        style="fill:#2796c6; stroke-width:0px;" />
    <path
        d="M117.19,77.13c4.42-9.52,8.67-18.64,12.96-27.88h17.85v59.35h-16.19v-30.08c-.19-.05-.38-.1-.57-.15-3.2,7-6.41,14-9.65,21.07h-8.82c-3.18-6.96-6.4-13.99-9.61-21.02-.11,0-.22.02-.34.03v30.18h-16.53v-59.48c5.91-.09,11.82-.02,17.93-.04,4.26,9.22,8.51,18.41,12.96,28.03Z"
        style="fill:#174172; stroke-width:0px;" />
    <path
        d="M431.63,208.9c-3.54-.66-7.08-1.33-10.62-1.99-10.98-2.04-22.05-3.48-33.19-4.24-10.32-.7-20.66-1.16-31-.24-8.11.72-16.25,1.3-24.3,2.44-10.97,1.56-21.81,3.95-32.37,7.32-15.42,4.92-30.74,10.14-46.06,15.37-13.99,4.77-28.11,9.03-42.71,11.48-12.39,2.08-24.89,2.91-37.44,2.16-7.45-.44-14.9-1.1-22.29-2.07-7.48-.98-14.8-2.82-21.76-5.84-.66-.29-1.28-.66-1.81-1.36,2.37.17,4.74.41,7.11.51,8.67.35,17.34.83,26.01.93,12.1.14,24.13-.99,36.07-2.83,16.04-2.47,31.7-6.57,47.16-11.44,14.86-4.68,29.69-9.49,44.61-13.99,11.47-3.46,23.19-5.92,35.07-7.63,13.34-1.92,26.72-2.7,40.18-2.16,9.8.39,19.55,1.45,29.24,3.01,12.23,1.96,24.22,4.82,35.82,9.2.83.31,1.65.67,2.47,1-.06.13-.13.25-.19.38Z"
        style="fill:#174172; stroke-width:0px;" />
    <path
        d="M366.52,108.63c-3.43-5.93-6.94-11.97-10.41-17.95h-6.23v17.99h-16.35v-59.39c.57-.06,1.15-.16,1.73-.16,8.45-.01,16.9.04,25.35-.02,9.84-.07,18.45,7.1,20.23,17.32,1.34,7.71-1.05,14.46-7.18,19.63-.28.24-.57.48-1.04.87,4.14,7.17,8.26,14.32,12.52,21.71h-18.61ZM350,63.43v12.73c3.12,0,6.11.01,9.11,0,2.88-.01,4.56-1.28,5.03-4.1.25-1.46.23-3.03-.02-4.49-.38-2.25-2.25-4.04-4.24-4.11-3.23-.11-6.47-.03-9.88-.03Z"
        style="fill:#174172; stroke-width:0px;" />
    <path
        d="M417.45,48.87c16.72-.49,30.24,13.97,30.3,30.31.05,16.08-13.65,30.12-30.58,30.17-17.2.05-30.48-14.53-30.42-30.54.06-16.71,14.36-30.38,30.7-29.93ZM431.27,79.1c-.51-2.41-.74-4.93-1.6-7.22-1.84-4.91-5.51-7.86-10.78-8.43-5.37-.58-9.98,1.11-12.75,5.91-3.67,6.35-3.7,12.99,0,19.34,2.73,4.69,7.2,6.44,12.51,5.99,4.82-.41,8.29-2.91,10.44-7.22,1.3-2.61,1.8-5.41,2.17-8.37Z"
        style="fill:#174172; stroke-width:0px;" />
    <path d="M263.33,49.24h41.78v14.08h-25.18v8.48h21.43v13.26h-21.44v9.4h25.91v14.24h-42.49v-59.45Z"
        style="fill:#174172; stroke-width:0px;" />
    <path
        d="M174.33,49.2h15.13c6.9,19.77,13.78,39.51,20.74,59.44h-16.75c-1.18-3.73-2.38-7.51-3.61-11.41h-15.94c-1.15,3.69-2.35,7.53-3.57,11.45h-16.82c6.99-19.95,13.92-39.74,20.83-59.48ZM181.84,67.97c-1.87,6.2-3.62,12.04-5.43,18.04h10.73c-1.61-5.6-3.16-11.01-4.72-16.41-.12-.43-.3-.84-.58-1.63Z"
        style="fill:#174172; stroke-width:0px;" />
    <path
        d="M446.91,49.22h17.44c3.82,12.65,7.67,25.43,11.53,38.21.13.02.26.05.39.07,3.78-12.72,7.56-25.43,11.37-38.26h17.35c-7.37,19.93-14.66,39.64-21.98,59.43h-13.83c-7.36-19.67-14.74-39.38-22.26-59.45Z"
        style="fill:#174172; stroke-width:0px;" />
    <path d="M223.14,63.4h-17.28v-14.15h50.84v14.09h-16.94v45.27h-16.62v-45.2Z"
        style="fill:#174172; stroke-width:0px;" />
    <path
        d="M213.4,121.9h5.61v42.87h-5.22v-32.33c-.15-.05-.3-.1-.44-.16-4.69,8.29-9.38,16.57-14.06,24.85h-3.16c-4.66-8.2-9.33-16.42-14-24.65-.13.03-.25.07-.38.1v32.14h-5.42v-42.74h5.73c5.08,9.04,10.24,18.22,15.61,27.77,5.34-9.46,10.53-18.64,15.73-27.87Z"
        style="fill:#ef8921; stroke-width:0px;" />
    <path
        d="M505.83,164.86h-4.48c-8.65-10.72-17.31-21.46-25.96-32.19-.14.03-.29.07-.43.1v32.02h-5.48v-42.79h4.34c8.66,10.8,17.5,21.82,26.34,32.84.13-.06.27-.11.4-.17v-32.63h5.27v42.8Z"
        style="fill:#ef8921; stroke-width:0px;" />
    <path
        d="M126.21,144.2c.01-7.57,2.53-13.2,7.51-17.67,7.48-6.7,18.31-6.69,25.75.04,9.49,8.58,10.31,23.3,1.05,32.76-10.18,10.41-27.13,6.63-32.65-7.16-1.13-2.83-1.78-5.76-1.66-7.98ZM161.41,144.03c0-4.25-1.04-7.86-2.89-10.71-5.23-8.03-15.67-9.09-22.12-2.23-6.42,6.82-6.15,18.77.55,25.25,5.74,5.55,14.37,5.32,19.78-.55,3.22-3.49,4.59-7.71,4.68-11.76Z"
        style="fill:#ef8921; stroke-width:0px;" />
    <path
        d="M419.42,143.29c.14-6.94,2.74-12.78,8.1-17.23,7.82-6.48,18.63-5.94,25.91,1.15,8.55,8.34,9.11,22.19,1.24,31.18-8.8,10.05-24.03,8.96-31.45-2.27-2.56-3.88-3.84-8.16-3.8-12.83ZM439.6,160.36c3.21-.03,5.95-.93,8.38-2.77,8.32-6.31,8.98-20.15,1.3-27.22-6.16-5.67-15.16-4.96-20.38,1.6-5.15,6.48-5.26,16.17-.2,22.71,2.79,3.61,6.48,5.54,10.9,5.68Z"
        style="fill:#ef8921; stroke-width:0px;" />
    <path d="M270.88,121.96h28.52v4.77h-22.99v13.89h19.94v4.62h-19.94v14.72h23.56v4.83h-29.09v-42.82Z"
        style="fill:#ef8921; stroke-width:0px;" />
    <path
        d="M231.23,121.9c6.48,0,12.82-.3,19.13.08,7,.42,12.29,7.21,11.91,14.58-.34,6.65-5.38,13.15-13.24,12.96-3.32-.08-6.64-.01-9.95-.01-.73,0-1.47,0-2.47,0,0,2.69,0,5.16,0,7.63s0,4.97,0,7.62h-5.38v-42.86ZM236.74,144.51c4.65,0,9.16.1,13.67-.05,2.08-.07,3.7-1.4,4.67-3.19.74-1.37,1.32-2.9,1.6-4.43.95-5.21-3.11-10.01-8.37-10.07-1.96-.02-3.93,0-5.89,0-1.86,0-3.73,0-5.69,0v17.74Z"
        style="fill:#ef8921; stroke-width:0px;" />
    <path
        d="M120.17,131.06c-1.42.92-2.73,1.76-4.14,2.67-.28-.35-.55-.6-.71-.91-4.03-7.37-15.93-8.82-22.24-1.23-5.84,7.01-5.28,18.43,1.29,24.74,6.54,6.3,16.6,5.13,21.48-2.48.16-.25.33-.5.61-.93.72.35,1.44.69,2.14,1.06.73.38,1.44.8,2.24,1.26-.54,2.02-1.79,3.49-3.24,4.79-6.13,5.55-17.66,8.45-26.71.06-8.83-8.18-9.97-21.88-2.5-31.11,6.95-8.6,18.18-8.75,24.76-5.24,3.06,1.63,5.43,3.98,7.03,7.31Z"
        style="fill:#ef8921; stroke-width:0px;" />
    <path d="M325.67,164.85h-5.6v-37.99h-14.85v-4.91h35.17v4.76h-14.72v38.15Z"
        style="fill:#ef8921; stroke-width:0px;" />
    <path d="M376.6,126.75h-14.9v-4.76h35.08v4.76h-14.83v38.06h-5.35v-38.06Z" style="fill:#ef8921; stroke-width:0px;" />
    <path
        d="M386.71,244.55h-4.23c-.17-3.94-.33-7.82-.49-11.71-.14-.02-.29-.04-.43-.06-1.03,3.86-2.07,7.72-3.13,11.7h-4.25c-.55-7.76-1.1-15.47-1.66-23.34h4.72c.15,3.84.29,7.57.44,11.3l.44.04c1.03-3.74,2.05-7.47,3.12-11.34h4.07c.13,3.75.27,7.47.4,11.2.16.03.33.06.49.08,1-3.77,1.99-7.53,2.99-11.32h4.66c-2.4,7.88-4.74,15.56-7.14,23.44Z"
        style="fill:#174172; stroke-width:0px;" />
    <path
        d="M429.51,244.53h-5.06c-.8-4.2-1.6-8.37-2.39-12.54-.12,0-.24-.01-.36-.02-.53,4.15-1.06,8.3-1.59,12.53h-4.55c.96-7.84,1.9-15.52,2.85-23.34h5.02c.83,4.19,1.66,8.43,2.5,12.68.1,0,.2-.01.3-.02.52-4.16,1.04-8.32,1.58-12.64h4.55c-.95,7.81-1.89,15.54-2.85,23.35Z"
        style="fill:#174172; stroke-width:0px;" />
    <path
        d="M493.51,244.56h-5.04c-.83-4.27-1.65-8.52-2.47-12.77-.1,0-.2.01-.3.02-.52,4.17-1.04,8.33-1.59,12.65h-4.55c.96-7.83,1.9-15.56,2.86-23.36h5c.81,4.12,1.63,8.3,2.44,12.48.12.02.24.04.35.05.54-4.15,1.08-8.3,1.63-12.53h4.52c-.95,7.81-1.89,15.53-2.85,23.46Z"
        style="fill:#174172; stroke-width:0px;" />
    <path
        d="M341.05,221.1h5.01c.83,4.23,1.64,8.41,2.46,12.58.12,0,.23.02.35.02.53-4.15,1.06-8.3,1.6-12.56h4.55c-.97,7.89-1.92,15.63-2.87,23.42h-5.03c-.81-4.2-1.63-8.45-2.45-12.7-.11,0-.21,0-.32,0-.52,4.13-1.04,8.27-1.58,12.58h-4.55c.95-7.76,1.89-15.49,2.85-23.35Z"
        style="fill:#174172; stroke-width:0px;" />
    <path d="M404.93,121.97h5.31v42.78h-5.31v-42.78Z" style="fill:#ef8921; stroke-width:0px;" />
    <path d="M348.42,121.93h5.23v42.99h-5.23v-42.99Z" style="fill:#ef8921; stroke-width:0px;" />
    <path
        d="M496.96,244.62c.99-8.02,1.94-15.69,2.9-23.48,2.79,0,5.42-.19,8.01.06,2.39.23,3.94,2.25,4.1,4.7.04.67.03,1.36-.05,2.03-.43,3.51-.81,7.04-1.36,10.53-.58,3.72-3.22,6-6.98,6.14-2.1.08-4.2.01-6.62.01ZM503.96,225.36c-.6,4.99-1.2,10.02-1.81,15.09,2.86.04,3.58-.5,3.94-2.95.46-3.13.87-6.28,1.21-9.42.27-2.51-.52-3.15-3.35-2.71Z"
        style="fill:#174172; stroke-width:0px;" />
    <path
        d="M447.48,228.67h-4.36c0-.77.15-1.48-.04-2.07-.21-.64-.66-1.5-1.18-1.65-.55-.16-.99-.18-1.93.71-.38.35-.57,1.05-.64,1.62-.48,3.66-.93,7.32-1.35,10.99-.13,1.09-.09,2.19,1.32,2.47,1.09.21,2.03-.58,2.38-1.93.04-.14.04-.3.06-.45.1-.74.2-1.96.32-2.87-.53-.04-1.02-.07-1.81-.12.09-1.04.19-2.13.3-3.34h6.69c-.43,2.79-.58,5.51-1.29,8.07-1.13,4.06-6.18,6.02-9.97,4.13-2.09-1.04-2.94-2.89-2.73-5.04.4-4.27.91-8.54,1.63-12.77.66-3.92,4.27-6.29,8.18-5.68,3.14.49,4.9,2.64,4.73,5.83-.04.66-.19,1.32-.3,2.1Z"
        style="fill:#174172; stroke-width:0px;" />
    <path
        d="M469.96,221.12h5.21c.67,7.8,1.33,15.49,2.01,23.36h-4.56c-.11-1.06-.23-2.15-.37-3.45-.77-.05-1.49-.11-2.21-.14-.67-.02-1.34,0-2.09,0-.43,1.24-.82,2.36-1.26,3.6h-4.49c2.61-7.85,5.18-15.58,7.76-23.37ZM472.14,237.04c-.13-2.9-.25-5.6-.37-8.3-.17,0-.34,0-.51-.01-.74,2.71-1.49,5.42-2.28,8.31h3.16Z"
        style="fill:#174172; stroke-width:0px;" />
    <path
        d="M403.46,221.11h11.98c-.15,1.31-.3,2.53-.46,3.94h-7.32c-.25,1.86-.47,3.55-.73,5.49,1.45.1,2.83.2,4.45.32-.17,1.31-.33,2.48-.5,3.81-1.47.08-2.87.17-4.45.26-.22,1.83-.43,3.59-.68,5.63h7.37c-.19,1.44-.34,2.61-.51,3.93h-11.99c.96-7.81,1.9-15.55,2.86-23.37Z"
        style="fill:#174172; stroke-width:0px;" />
    <path
        d="M358.5,221.09h12c-.17,1.34-.32,2.55-.5,3.95h-7.3c-.26,1.91-.49,3.64-.75,5.54,1.52.08,2.84.16,4.42.24-.15,1.31-.29,2.47-.44,3.83-1.46.09-2.85.17-4.46.26-.23,1.81-.45,3.58-.7,5.61h7.31c-.17,1.48-.31,2.7-.46,3.98h-12c.96-7.83,1.91-15.5,2.88-23.4Z"
        style="fill:#174172; stroke-width:0px;" />
    <path
        d="M453.87,240.54h7.39c-.19,1.48-.35,2.71-.52,3.99h-12.01c.96-7.88,1.91-15.61,2.86-23.39h4.62c-.79,6.49-1.55,12.82-2.35,19.4Z"
        style="fill:#174172; stroke-width:0px;" />
    <path
        d="M141.24,13.66c-124.46,11.14-111.41,176.95,4.03,190.93-35.53,2.17-73.51-8.19-97.18-36.02-30.94-33.94-33.89-89.92-3.62-125.23C66.31,15.54,108.38,3.1,141.24,13.66Z"
        style="fill:#2796c6; stroke-width:0px;" />
    <path
        d="M128.48,204.75C-2.51,184.53,5.92,4.62,141.25,13.66c-32.9-10.53-74.89,1.86-96.77,29.67-30.26,35.31-27.32,91.29,3.62,125.23,20.99,25.28,52.98,34.57,84.74,36.5l-4.36-.32Z"
        style="fill:#174172; stroke-width:0px;" />
</svg>